# xmcd
#
# Track frame offsets: 
#        150
#        21155
#        45818
#        59463
#        77404
#        92792
#        100820
#        118689
#        141740
#        170368
#        194341
#        207439
#
# Disc length: 3072 seconds
#
# Revision: 0
# Processed by: cddbd v1.5.1PL0 Copyright (c) Steve Scherf et al.
# Submitted via: ExactAudioCopy v0.95a4
#
DISCID=a10bfe0c
DTITLE=Francis Kuipers - Anthology
DYEAR=1900
DGENRE=Blues
TTITLE0=Jumbo the fornicator
TTITLE1=Shadow in the dark
TTITLE2=The hermit
TTITLE3=Citizen Cake
TTITLE4=9th Oct
TTITLE5=My Cavewoman Grandmother
TTITLE6=Good Moons
TTITLE7=Silver sun
TTITLE8=Z files
TTITLE9=Shining city
TTITLE10=Zivania
TTITLE11=Paura
EXTD=
EXTT0=
EXTT1=
EXTT2=
EXTT3=
EXTT4=
EXTT5=
EXTT6=
EXTT7=
EXTT8=
EXTT9=
EXTT10=
EXTT11=
PLAYORDER=
